<svg xmlns="http://www.w3.org/2000/svg" xmlns:svg="http://www.w3.org/2000/svg" xmlns:xlink="http://www.w3.org/1999/xlink" id="svg8" width="480" height="720" version="1.1" viewBox="0 0 127 190.5"><defs id="defs2"><rect id="rect149" width="37.868" height="12.312" x="36.476" y="143.748"/><rect id="rect250" width="29.006" height="21.771" x="41.021" y="144.428"/><rect id="rect21" width="119.202" height="183.347" x="4.544" y="109.707"/><linearGradient id="linearGradient3719"><stop style="stop-color:#666;stop-opacity:1" id="stop3715" offset="0"/><stop id="stop3725" offset=".081" style="stop-color:#f3f3f3;stop-opacity:1"/><stop id="stop3723" offset=".905" style="stop-color:#fff;stop-opacity:1"/><stop style="stop-color:#f2f2f2;stop-opacity:0" id="stop3717" offset="1"/></linearGradient><linearGradient id="linearGradient3721" x1="109.848" x2="129.292" y1="45.199" y2="45.132" gradientTransform="matrix(4.9876188,0,0,4.9876188,-528.78249,-28.604541)" gradientUnits="userSpaceOnUse" xlink:href="#linearGradient3719"/></defs><metadata id="metadata5"/><g id="layer1" transform="translate(0,-106.49998)"><g id="text19" aria-label="Lorem ipsum dolor sit amet, consectetur adipiscing elit. In ac mauris dictum, dignissim turpis et, pellentesque risus." transform="matrix(2.385586,0,0,2.2142114,-66.17034,-135.08109)" style="font-style:normal;font-weight:400;font-size:10.5833px;line-height:1.25;font-family:sans-serif;white-space:pre;shape-inside:url(#rect21);fill:#000;fill-opacity:1;stroke:none"><rect style="font-style:normal;font-weight:400;font-size:10.5833px;line-height:1.25;font-family:sans-serif;white-space:pre;shape-inside:url(#rect21);fill:#fff;fill-opacity:1;stroke:#000;stroke-width:.376365;stroke-linejoin:miter;stroke-miterlimit:0;stroke-dasharray:none;stroke-dashoffset:0;stroke-opacity:1;paint-order:fill markers stroke" id="rect961" width="40.597" height="32.582" x="34.888" y="133.13"/><text style="font-style:normal;font-variant:normal;font-weight:700;font-stretch:normal;font-size:53.3333322px;line-height:1.25;font-family:Arial;-inkscape-font-specification:'Arial Bold';white-space:pre;shape-inside:url(#rect21);fill:#000;fill-opacity:1;stroke:none;stroke-width:.999998" id="text965" x="328.477" y="1417.513" transform="matrix(0.11090916,0,0,0.11949326,-5.5005633,-25.070014)" xml:space="preserve"><tspan x="4.543" y="157.747"><tspan style="font-style:normal;font-variant:normal;font-weight:700;font-stretch:normal;font-size:53.3333px;font-family:Arial;-inkscape-font-specification:'Arial Bold';stroke-width:.999998">Text</tspan></tspan></text><path id="path2" d="M 75.484619,165.71169 H 34.887741 V 133.12976 H 75.484619 Z M 73.793086,134.75881 H 36.579275 V 164.0825 H 73.793086 Z M 72.10155,160.8244 H 39.962358 l 6.766137,-12.20526 5.074617,4.96555 8.479663,-12.30941 z m -20.041328,-4.66738 -4.922375,-4.81556 -4.354013,7.85376 h 26.376135 l -8.970228,-14.83771 z m -7.869021,-18.13998 c 2.33431,0 4.228828,1.82455 4.228828,4.0727 0,2.24813 -1.894518,4.07282 -4.228828,4.07282 -2.334326,0 -4.228843,-1.82469 -4.228843,-4.07282 0,-2.24815 1.894517,-4.0727 4.228843,-4.0727 z m 0,1.62906 c 1.40055,0 2.537294,1.09474 2.537294,2.44364 0,1.34834 -1.136699,2.44364 -2.537294,2.44364 -1.400549,0 -2.537308,-1.09477 -2.537308,-2.44364 0,-1.34834 1.136698,-2.44364 2.537308,-2.44364 z" style="stroke-width:1.66002"/></g></g></svg>