<svg xmlns="http://www.w3.org/2000/svg" xmlns:svg="http://www.w3.org/2000/svg" xmlns:xlink="http://www.w3.org/1999/xlink" id="svg8" width="480" height="720" version="1.1" viewBox="0 0 127 190.5"><defs id="defs2"><linearGradient id="linearGradient3719"><stop style="stop-color:#666;stop-opacity:1" id="stop3715" offset="0"/><stop id="stop3725" offset=".081" style="stop-color:#f3f3f3;stop-opacity:1"/><stop id="stop3723" offset=".905" style="stop-color:#fff;stop-opacity:1"/><stop style="stop-color:#f2f2f2;stop-opacity:0" id="stop3717" offset="1"/></linearGradient><linearGradient id="linearGradient3721" x1="109.848" x2="129.292" y1="45.199" y2="45.132" gradientTransform="matrix(4.9876188,0,0,4.9876188,-528.78249,-28.604541)" gradientUnits="userSpaceOnUse" xlink:href="#linearGradient3719"/></defs><metadata id="metadata5"/><g id="layer1" transform="translate(0,-106.49998)"><rect id="rect10" width="89.314" height="162.631" x="21.762" y="122.346" ry="11.997" style="stroke-width:1.31964076"/><circle style="fill:#f2f2f2;stroke:none;stroke-width:1.31964076" id="path22" cx="66.419" cy="276.478" r="5.832"/><rect style="fill:#f2f2f2;stroke:none;stroke-width:1.31964076" id="rect24" width="19.795" height="2.71" x="56.522" y="126.951" ry="1.355"/><rect style="fill:#fff;stroke-width:.264583" id="rect31" width="81.784" height="131.497" x="25.658" y="136.969" ry="4.832"/><rect style="fill:#000;fill-opacity:.361868;stroke:none;stroke-width:.269929;stroke-opacity:1" id="rect54" width="81.784" height="19.243" x="25.658" y="249.222" rx="0" ry="2.94"/><rect style="fill:#ccc;fill-rule:evenodd;stroke:#000;stroke-width:.3;stroke-miterlimit:0;paint-order:fill markers stroke;fill-opacity:0;stroke-dasharray:none" id="rect841" width="16.437" height="13.631" x="28.865" y="251.761"/><rect style="fill:#fff;fill-opacity:0;fill-rule:evenodd;stroke:#000;stroke-width:.3;stroke-miterlimit:0;stroke-dasharray:none;paint-order:fill markers stroke" id="rect841-3" width="16.437" height="13.631" x="48.376" y="251.761"/><rect style="fill:#ccc;fill-opacity:0;fill-rule:evenodd;stroke:#000;stroke-width:.3;stroke-miterlimit:0;stroke-dasharray:none;paint-order:fill markers stroke" id="rect841-3-0" width="16.437" height="13.631" x="68.287" y="251.895"/><rect style="fill:#ccc;fill-opacity:0;fill-rule:evenodd;stroke:#000;stroke-width:.3;stroke-miterlimit:0;stroke-dasharray:none;paint-order:fill markers stroke" id="rect841-3-0-1" width="16.437" height="13.631" x="87.511" y="251.864"/><path style="fill:#fff;fill-opacity:.428016;fill-rule:evenodd;stroke:none;stroke-width:.3;stroke-miterlimit:0;stroke-dasharray:none;paint-order:fill markers stroke" id="path888" d="m 41.057664,260.9505 -3.604996,-0.21515 -2.220964,2.84773 -0.909385,-3.49504 -3.394674,-1.23226 3.042966,-1.9449 0.12294,-3.60932 2.79004,2.29302 3.470656,-0.99842 -1.318626,3.36207 z"/><path style="fill:#fff;fill-opacity:.428016;fill-rule:evenodd;stroke:none;stroke-width:.3;stroke-miterlimit:0;stroke-dasharray:none;paint-order:fill markers stroke" id="path888-6" d="m 61.383462,261.00183 -3.604996,-0.21515 -2.220964,2.84773 -0.909385,-3.49504 -3.394674,-1.23226 3.042966,-1.9449 0.12294,-3.60932 2.79004,2.29302 3.470656,-0.99841 -1.318626,3.36207 z"/><path style="fill:#fff;fill-opacity:.428016;fill-rule:evenodd;stroke:none;stroke-width:.3;stroke-miterlimit:0;stroke-dasharray:none;paint-order:fill markers stroke" id="path888-2" d="m 81.6783,261.00598 -3.604996,-0.21515 -2.220964,2.84773 -0.909385,-3.49504 -3.394674,-1.23226 3.042966,-1.9449 0.12294,-3.60932 2.79004,2.29302 3.470656,-0.99841 -1.318626,3.36207 z"/><path style="fill:#fff;fill-opacity:.428016;fill-rule:evenodd;stroke:none;stroke-width:.3;stroke-miterlimit:0;stroke-dasharray:none;paint-order:fill markers stroke" id="path888-69" d="m 101.07096,261.19082 -3.604994,-0.21515 -2.220964,2.84774 -0.909385,-3.49504 -3.394674,-1.23227 3.042966,-1.9449 0.12294,-3.60932 2.79004,2.29303 3.470651,-0.99842 -1.318621,3.36207 z"/></g></svg>